<mxfile host="app.diagrams.net" modified="2023-02-09T08:53:50.792Z" agent="5.0 (Macintosh; Intel Mac OS X 10_15_7) AppleWebKit/537.36 (KHTML, like Gecko) Chrome/110.0.0.0 Safari/537.36" etag="TfGO6p0_Hcdm5uivYZFv" version="20.8.18" type="github">
  <diagram name="Page-1" id="fro9dTusA3VamxVpbHAj">
    <mxGraphModel dx="1234" dy="1163" grid="1" gridSize="10" guides="1" tooltips="1" connect="1" arrows="1" fold="1" page="1" pageScale="1" pageWidth="827" pageHeight="1169" math="0" shadow="0">
      <root>
        <mxCell id="0" />
        <mxCell id="1" parent="0" />
        <mxCell id="tJJO3t7hs5ew0HpddZXp-33" value="Admins" style="rounded=0;whiteSpace=wrap;html=1;fontSize=17;fillColor=#dae8fc;strokeColor=#6c8ebf;labelPosition=center;verticalLabelPosition=bottom;align=center;verticalAlign=top;" vertex="1" parent="1">
          <mxGeometry x="540" y="30" width="140" height="650" as="geometry" />
        </mxCell>
        <mxCell id="tJJO3t7hs5ew0HpddZXp-31" value="Money" style="rounded=0;whiteSpace=wrap;html=1;fontSize=17;fillColor=#f8cecc;strokeColor=#b85450;labelPosition=center;verticalLabelPosition=bottom;align=center;verticalAlign=top;" vertex="1" parent="1">
          <mxGeometry x="400" y="30" width="140" height="650" as="geometry" />
        </mxCell>
        <mxCell id="tJJO3t7hs5ew0HpddZXp-30" value="Products" style="rounded=0;whiteSpace=wrap;html=1;fontSize=17;fillColor=#d5e8d4;strokeColor=#82b366;labelPosition=center;verticalLabelPosition=bottom;align=center;verticalAlign=top;" vertex="1" parent="1">
          <mxGeometry x="265" y="30" width="135" height="650" as="geometry" />
        </mxCell>
        <mxCell id="tJJO3t7hs5ew0HpddZXp-28" value="Storefront" style="rounded=0;whiteSpace=wrap;html=1;fontSize=17;fillColor=#ffe6cc;strokeColor=#d79b00;labelPosition=center;verticalLabelPosition=bottom;align=center;verticalAlign=top;" vertex="1" parent="1">
          <mxGeometry x="145" y="30" width="120" height="650" as="geometry" />
        </mxCell>
        <mxCell id="tJJO3t7hs5ew0HpddZXp-6" style="edgeStyle=orthogonalEdgeStyle;rounded=0;orthogonalLoop=1;jettySize=auto;html=1;entryX=0;entryY=0.5;entryDx=0;entryDy=0;endArrow=none;endFill=0;curved=1;" edge="1" parent="1" source="tJJO3t7hs5ew0HpddZXp-1" target="tJJO3t7hs5ew0HpddZXp-5">
          <mxGeometry relative="1" as="geometry" />
        </mxCell>
        <mxCell id="tJJO3t7hs5ew0HpddZXp-1" value="Customer" style="shape=umlActor;verticalLabelPosition=bottom;verticalAlign=top;html=1;outlineConnect=0;" vertex="1" parent="1">
          <mxGeometry x="50" y="70" width="40" height="90" as="geometry" />
        </mxCell>
        <mxCell id="tJJO3t7hs5ew0HpddZXp-10" style="edgeStyle=orthogonalEdgeStyle;curved=1;rounded=0;orthogonalLoop=1;jettySize=auto;html=1;entryX=1;entryY=0.5;entryDx=0;entryDy=0;fontSize=17;endArrow=none;endFill=0;" edge="1" parent="1" source="tJJO3t7hs5ew0HpddZXp-2" target="tJJO3t7hs5ew0HpddZXp-7">
          <mxGeometry relative="1" as="geometry">
            <mxPoint x="730" y="120" as="sourcePoint" />
          </mxGeometry>
        </mxCell>
        <mxCell id="tJJO3t7hs5ew0HpddZXp-2" value="Restaurant&lt;br&gt;Owner" style="shape=umlActor;verticalLabelPosition=bottom;verticalAlign=top;html=1;outlineConnect=0;" vertex="1" parent="1">
          <mxGeometry x="720" y="70" width="40" height="90" as="geometry" />
        </mxCell>
        <mxCell id="tJJO3t7hs5ew0HpddZXp-35" style="edgeStyle=orthogonalEdgeStyle;curved=1;rounded=0;orthogonalLoop=1;jettySize=auto;html=1;entryX=1;entryY=0.5;entryDx=0;entryDy=0;fontSize=17;endArrow=none;endFill=0;" edge="1" parent="1" target="tJJO3t7hs5ew0HpddZXp-34">
          <mxGeometry relative="1" as="geometry">
            <mxPoint x="710" y="660" as="sourcePoint" />
          </mxGeometry>
        </mxCell>
        <mxCell id="tJJO3t7hs5ew0HpddZXp-39" value="if purchased" style="edgeStyle=orthogonalEdgeStyle;curved=1;rounded=0;orthogonalLoop=1;jettySize=auto;html=1;exitX=0;exitY=0.3333333333333333;exitDx=0;exitDy=0;exitPerimeter=0;entryX=1;entryY=0.5;entryDx=0;entryDy=0;fontSize=17;endArrow=none;endFill=0;labelBackgroundColor=none;" edge="1" parent="1" source="tJJO3t7hs5ew0HpddZXp-3" target="tJJO3t7hs5ew0HpddZXp-16">
          <mxGeometry x="0.6098" y="20" relative="1" as="geometry">
            <Array as="points">
              <mxPoint x="720" y="590" />
              <mxPoint x="555" y="590" />
              <mxPoint x="555" y="530" />
            </Array>
            <mxPoint as="offset" />
          </mxGeometry>
        </mxCell>
        <mxCell id="tJJO3t7hs5ew0HpddZXp-3" value="Cook" style="shape=umlActor;verticalLabelPosition=bottom;verticalAlign=top;html=1;outlineConnect=0;" vertex="1" parent="1">
          <mxGeometry x="720" y="580" width="40" height="90" as="geometry" />
        </mxCell>
        <mxCell id="tJJO3t7hs5ew0HpddZXp-14" style="edgeStyle=orthogonalEdgeStyle;curved=1;rounded=0;orthogonalLoop=1;jettySize=auto;html=1;exitX=1;exitY=0.5;exitDx=0;exitDy=0;entryX=0.091;entryY=0.167;entryDx=0;entryDy=0;dashed=1;dashPattern=8 8;fontSize=17;endArrow=none;endFill=0;entryPerimeter=0;" edge="1" parent="1" source="tJJO3t7hs5ew0HpddZXp-5" target="tJJO3t7hs5ew0HpddZXp-11">
          <mxGeometry relative="1" as="geometry" />
        </mxCell>
        <mxCell id="tJJO3t7hs5ew0HpddZXp-5" value="Visit&lt;br&gt;storefront" style="ellipse;whiteSpace=wrap;html=1;verticalAlign=middle;fontSize=17;fillColor=#FFFDE6;" vertex="1" parent="1">
          <mxGeometry x="150" y="140" width="110" height="60" as="geometry" />
        </mxCell>
        <mxCell id="tJJO3t7hs5ew0HpddZXp-13" style="edgeStyle=orthogonalEdgeStyle;curved=1;rounded=0;orthogonalLoop=1;jettySize=auto;html=1;exitX=0.5;exitY=0;exitDx=0;exitDy=0;entryX=1;entryY=0.5;entryDx=0;entryDy=0;fontSize=17;endArrow=none;endFill=0;dashed=1;dashPattern=8 8;" edge="1" parent="1" source="tJJO3t7hs5ew0HpddZXp-7" target="tJJO3t7hs5ew0HpddZXp-12">
          <mxGeometry relative="1" as="geometry" />
        </mxCell>
        <mxCell id="tJJO3t7hs5ew0HpddZXp-24" value="" style="edgeStyle=orthogonalEdgeStyle;curved=1;rounded=0;orthogonalLoop=1;jettySize=auto;html=1;dashed=1;dashPattern=8 8;fontSize=17;endArrow=none;endFill=0;" edge="1" parent="1" source="tJJO3t7hs5ew0HpddZXp-7" target="tJJO3t7hs5ew0HpddZXp-23">
          <mxGeometry relative="1" as="geometry" />
        </mxCell>
        <mxCell id="tJJO3t7hs5ew0HpddZXp-7" value="Visit&lt;br&gt;admin UI" style="ellipse;whiteSpace=wrap;html=1;verticalAlign=middle;fontSize=17;fillColor=#E3F2FF;" vertex="1" parent="1">
          <mxGeometry x="560" y="130" width="110" height="60" as="geometry" />
        </mxCell>
        <mxCell id="tJJO3t7hs5ew0HpddZXp-19" style="edgeStyle=orthogonalEdgeStyle;curved=1;rounded=0;orthogonalLoop=1;jettySize=auto;html=1;exitX=0.5;exitY=1;exitDx=0;exitDy=0;entryX=0.5;entryY=0;entryDx=0;entryDy=0;fontSize=17;endArrow=none;endFill=0;dashed=1;dashPattern=8 8;" edge="1" parent="1" source="tJJO3t7hs5ew0HpddZXp-8" target="tJJO3t7hs5ew0HpddZXp-18">
          <mxGeometry relative="1" as="geometry" />
        </mxCell>
        <mxCell id="tJJO3t7hs5ew0HpddZXp-8" value="Place order" style="ellipse;whiteSpace=wrap;html=1;verticalAlign=middle;fontSize=17;fillColor=#FFEBEB;" vertex="1" parent="1">
          <mxGeometry x="415" y="300" width="110" height="60" as="geometry" />
        </mxCell>
        <mxCell id="tJJO3t7hs5ew0HpddZXp-15" style="edgeStyle=orthogonalEdgeStyle;curved=1;rounded=0;orthogonalLoop=1;jettySize=auto;html=1;exitX=0.5;exitY=1;exitDx=0;exitDy=0;entryX=0.5;entryY=0;entryDx=0;entryDy=0;dashed=1;dashPattern=8 8;fontSize=17;endArrow=none;endFill=0;" edge="1" parent="1" source="tJJO3t7hs5ew0HpddZXp-11" target="tJJO3t7hs5ew0HpddZXp-8">
          <mxGeometry relative="1" as="geometry" />
        </mxCell>
        <mxCell id="tJJO3t7hs5ew0HpddZXp-11" value="Browse" style="ellipse;whiteSpace=wrap;html=1;verticalAlign=middle;fontSize=17;fillColor=#F5FFEB;" vertex="1" parent="1">
          <mxGeometry x="280" y="200" width="110" height="60" as="geometry" />
        </mxCell>
        <mxCell id="tJJO3t7hs5ew0HpddZXp-12" value="Upsert" style="ellipse;whiteSpace=wrap;html=1;verticalAlign=middle;fontSize=17;fillColor=#F5FFEB;" vertex="1" parent="1">
          <mxGeometry x="280" y="40" width="110" height="60" as="geometry" />
        </mxCell>
        <mxCell id="tJJO3t7hs5ew0HpddZXp-16" value="Prepare" style="ellipse;whiteSpace=wrap;html=1;verticalAlign=middle;fontSize=17;fillColor=#F5FFEB;" vertex="1" parent="1">
          <mxGeometry x="280" y="500" width="110" height="60" as="geometry" />
        </mxCell>
        <mxCell id="tJJO3t7hs5ew0HpddZXp-25" style="edgeStyle=orthogonalEdgeStyle;curved=1;rounded=0;orthogonalLoop=1;jettySize=auto;html=1;exitX=0;exitY=0.5;exitDx=0;exitDy=0;entryX=1;entryY=0.5;entryDx=0;entryDy=0;dashed=1;dashPattern=8 8;fontSize=17;endArrow=none;endFill=0;" edge="1" parent="1" target="tJJO3t7hs5ew0HpddZXp-21">
          <mxGeometry relative="1" as="geometry">
            <mxPoint x="420" y="430" as="sourcePoint" />
          </mxGeometry>
        </mxCell>
        <mxCell id="tJJO3t7hs5ew0HpddZXp-18" value="Checkout" style="ellipse;whiteSpace=wrap;html=1;verticalAlign=middle;fontSize=17;fillColor=#FFEBEB;" vertex="1" parent="1">
          <mxGeometry x="415" y="400" width="110" height="60" as="geometry" />
        </mxCell>
        <mxCell id="tJJO3t7hs5ew0HpddZXp-22" style="edgeStyle=orthogonalEdgeStyle;curved=1;rounded=0;orthogonalLoop=1;jettySize=auto;html=1;exitX=0.5;exitY=1;exitDx=0;exitDy=0;fontSize=17;endArrow=none;endFill=0;dashed=1;dashPattern=8 8;" edge="1" parent="1" source="tJJO3t7hs5ew0HpddZXp-21" target="tJJO3t7hs5ew0HpddZXp-16">
          <mxGeometry relative="1" as="geometry" />
        </mxCell>
        <mxCell id="tJJO3t7hs5ew0HpddZXp-32" value="if purchased" style="edgeStyle=orthogonalEdgeStyle;curved=1;rounded=0;orthogonalLoop=1;jettySize=auto;html=1;exitX=0;exitY=0.5;exitDx=0;exitDy=0;entryX=1;entryY=1;entryDx=0;entryDy=0;entryPerimeter=0;fontSize=17;endArrow=none;endFill=0;labelBackgroundColor=none;" edge="1" parent="1" source="tJJO3t7hs5ew0HpddZXp-21" target="tJJO3t7hs5ew0HpddZXp-1">
          <mxGeometry y="40" relative="1" as="geometry">
            <Array as="points">
              <mxPoint x="120" y="430" />
              <mxPoint x="120" y="160" />
            </Array>
            <mxPoint as="offset" />
          </mxGeometry>
        </mxCell>
        <mxCell id="tJJO3t7hs5ew0HpddZXp-21" value="Pickup" style="ellipse;whiteSpace=wrap;html=1;verticalAlign=middle;fontSize=17;fillColor=#F5FFEB;" vertex="1" parent="1">
          <mxGeometry x="280" y="400" width="110" height="60" as="geometry" />
        </mxCell>
        <mxCell id="tJJO3t7hs5ew0HpddZXp-23" value="Browse&lt;br&gt;sales" style="ellipse;whiteSpace=wrap;html=1;verticalAlign=middle;fontSize=17;fillColor=#FFEBEB;" vertex="1" parent="1">
          <mxGeometry x="415" y="150" width="110" height="60" as="geometry" />
        </mxCell>
        <mxCell id="tJJO3t7hs5ew0HpddZXp-27" style="edgeStyle=orthogonalEdgeStyle;curved=1;rounded=0;orthogonalLoop=1;jettySize=auto;html=1;exitX=0.5;exitY=1;exitDx=0;exitDy=0;entryX=0.5;entryY=0;entryDx=0;entryDy=0;dashed=1;dashPattern=8 8;fontSize=17;endArrow=none;endFill=0;" edge="1" parent="1" source="tJJO3t7hs5ew0HpddZXp-26" target="tJJO3t7hs5ew0HpddZXp-5">
          <mxGeometry relative="1" as="geometry" />
        </mxCell>
        <mxCell id="tJJO3t7hs5ew0HpddZXp-26" value="Authenticate" style="ellipse;whiteSpace=wrap;html=1;verticalAlign=middle;fontSize=17;fillColor=#FFFDE6;" vertex="1" parent="1">
          <mxGeometry x="150" y="40" width="110" height="60" as="geometry" />
        </mxCell>
        <mxCell id="tJJO3t7hs5ew0HpddZXp-38" style="edgeStyle=orthogonalEdgeStyle;curved=1;rounded=0;orthogonalLoop=1;jettySize=auto;html=1;exitX=0;exitY=0.5;exitDx=0;exitDy=0;fontSize=17;endArrow=none;endFill=0;dashed=1;dashPattern=8 8;" edge="1" parent="1" source="tJJO3t7hs5ew0HpddZXp-34" target="tJJO3t7hs5ew0HpddZXp-36">
          <mxGeometry relative="1" as="geometry" />
        </mxCell>
        <mxCell id="tJJO3t7hs5ew0HpddZXp-34" value="Visit&lt;br&gt;product UI" style="ellipse;whiteSpace=wrap;html=1;verticalAlign=middle;fontSize=17;fillColor=#E3F2FF;" vertex="1" parent="1">
          <mxGeometry x="555" y="600" width="110" height="60" as="geometry" />
        </mxCell>
        <mxCell id="tJJO3t7hs5ew0HpddZXp-36" value="Change&lt;br&gt;availability" style="ellipse;whiteSpace=wrap;html=1;verticalAlign=middle;fontSize=17;fillColor=#F5FFEB;" vertex="1" parent="1">
          <mxGeometry x="280" y="600" width="110" height="60" as="geometry" />
        </mxCell>
      </root>
    </mxGraphModel>
  </diagram>
</mxfile>
